<svg version="1.2" baseProfile="tiny" id="EdgeSVG_yPaF9" x="0px" y="0px" width="136.239px" height="190.459px" viewBox="0 0 136.239 190.459" xmlns:xlink="http://www.w3.org/1999/xlink" xmlns="http://www.w3.org/2000/svg">
  <linearGradient id="SVGID_1_" gradientUnits="userSpaceOnUse" x1="68.1196" y1="190.4595" x2="68.1196" y2="4.882813e-004">
    <stop offset="0" style="stop-color:#000000;stop-opacity:0.5"/>
    <stop offset="1" style="stop-color:#000000;stop-opacity:0.5"/>
  </linearGradient>
  <path fill="url(#SVGID_1_)" d="M111.665,190.459c-4.781,0-9.17-2.612-11.454-6.817c-0.757-1.393-1.246-2.917-1.455-4.53&#xD;&#xA;&#x9;&#x9;c-0.085-0.624-0.126-1.162-0.126-1.68c0-0.521,0.041-1.06,0.128-1.694c0.207-1.601,0.696-3.124,1.452-4.516&#xD;&#xA;&#x9;&#x9;c1.83-3.368,5.045-5.746,8.752-6.529l0.156-1.452h0.176c-0.276-0.087-0.519-0.242-0.711-0.445H27.829&#xD;&#xA;&#x9;&#x9;c-0.301,0.32-0.722,0.516-1.193,0.516h-1.961c0.008,0.016,0.015,0.032,0.022,0.048c0.164,0.068,0.317,0.16,0.45,0.271l0.099,0.082&#xD;&#xA;&#x9;&#x9;c0,0,0.136,0.154,0.147,0.168h2.297l0.513,0.564c0.34,0.401,0.479,0.963,0.383,1.54c-0.168,1.006-1.074,2.022-2.717,2.022&#xD;&#xA;&#x9;&#x9;c-0.761,0-1.521-0.103-2.116-0.213l-0.53,0.867l-0.161,0.28c1.668,1.946,2.739,4.359,3.046,6.91c0.074,0.577,0.11,1.08,0.11,1.572&#xD;&#xA;&#x9;&#x9;c0,0.486-0.037,1.005-0.111,1.585c-0.612,5.07-4.165,9.336-9.05,10.855c-1.25,0.389-2.553,0.586-3.873,0.586&#xD;&#xA;&#x9;&#x9;c-6.52,0-12.069-4.876-12.907-11.342c-0.086-0.625-0.127-1.165-0.127-1.685c0-0.524,0.041-1.064,0.129-1.698&#xD;&#xA;&#x9;&#x9;c0.718-5.544,4.855-9.942,10.248-11.054l0.154-1.44h0.155c-0.263-0.085-0.497-0.236-0.684-0.436H0V0h136.239v162.796h-9.921&#xD;&#xA;&#x9;&#x9;c-0.302,0.326-0.726,0.525-1.202,0.525h-1.962c0.007,0.014,0.014,0.029,0.021,0.043c0.317,0.132,0.539,0.331,0.691,0.525h2.438&#xD;&#xA;&#x9;&#x9;l0.518,0.753c0.348,0.553,0.367,1.304,0.051,1.96c-0.208,0.427-0.864,1.412-2.523,1.412c-0.764,0-1.522-0.102-2.117-0.21&#xD;&#xA;&#x9;&#x9;l-0.535,0.875l-0.153,0.267c0.609,0.706,1.138,1.468,1.575,2.274c0.777,1.43,1.271,2.99,1.47,4.637&#xD;&#xA;&#x9;&#x9;c0.073,0.566,0.11,1.086,0.11,1.573c0,0.49-0.035,0.992-0.11,1.582c-0.198,1.639-0.693,3.199-1.47,4.629&#xD;&#xA;&#x9;&#x9;C120.834,187.847,116.445,190.459,111.665,190.459z M128.452,155.464V103.04l-44.845,44.833l5.424,7.577L128.452,155.464z&#xD;&#xA;&#x9;&#x9; M47.226,155.435l5.363-7.378L7.787,103.255v52.166L47.226,155.435z"/>
</svg>